<svg width="24" height="24" viewBox="0 0 24 24" fill="none" xmlns="http://www.w3.org/2000/svg">
<path fill-rule="evenodd" clip-rule="evenodd" d="M6.7 6.65L8.875 3.75H15.125L17.3 6.65C17.8193 7.34247 18.6344 7.75 19.5 7.75H20C20.6904 7.75 21.25 8.30964 21.25 9V19C21.25 19.6904 20.6904 20.25 20 20.25H4C3.30964 20.25 2.75 19.6904 2.75 19V9C2.75 8.30964 3.30964 7.75 4 7.75H4.5C5.36558 7.75 6.18065 7.34247 6.7 6.65ZM8.8 2.25C8.37508 2.25 7.97495 2.45006 7.72 2.79L5.5 5.75C5.26393 6.06476 4.89345 6.25 4.5 6.25H4C2.48122 6.25 1.25 7.48122 1.25 9V19C1.25 20.5188 2.48122 21.75 4 21.75H20C21.5188 21.75 22.75 20.5188 22.75 19V9C22.75 7.48122 21.5188 6.25 20 6.25H19.5C19.1066 6.25 18.7361 6.06476 18.5 5.75L16.28 2.79C16.025 2.45006 15.6249 2.25 15.2 2.25H8.8ZM8.75 13C8.75 11.2051 10.2051 9.75 12 9.75C13.7949 9.75 15.25 11.2051 15.25 13C15.25 14.7949 13.7949 16.25 12 16.25C10.2051 16.25 8.75 14.7949 8.75 13ZM12 8.25C9.37665 8.25 7.25 10.3766 7.25 13C7.25 15.6234 9.37665 17.75 12 17.75C14.6234 17.75 16.75 15.6234 16.75 13C16.75 10.3766 14.6234 8.25 12 8.25Z" fill="#F47F54"/>
</svg>
