<svg width="23" height="24" viewBox="0 0 23 24" fill="none" xmlns="http://www.w3.org/2000/svg">
<path fill-rule="evenodd" clip-rule="evenodd" d="M20.0909 6.09111C21.2122 4.96979 21.2122 3.15176 20.0909 2.03044C18.9696 0.909123 17.1516 0.909124 16.0302 2.03044L4.22615 13.8345C4.00187 14.0588 3.84277 14.3398 3.76584 14.6475L2.83296 18.3789C2.76906 18.6344 2.84395 18.9048 3.03023 19.0911C3.21652 19.2774 3.48688 19.3523 3.74246 19.2884L7.47375 18.3556C7.78146 18.2786 8.06247 18.1195 8.28675 17.8952L20.0909 6.09111ZM19.0302 3.0911C19.5658 3.62664 19.5658 4.49491 19.0302 5.03045L18.5606 5.50011L16.6212 3.56077L17.0909 3.0911C17.6264 2.55557 18.4947 2.55557 19.0302 3.0911ZM15.5606 4.62143L17.4999 6.56077L7.22609 16.8346C7.19405 16.8666 7.15391 16.8894 7.10995 16.9003L4.59135 17.53L5.22105 15.0113C5.23204 14.9674 5.25477 14.9272 5.28681 14.8952L15.5606 4.62143Z" fill="#676767"/>
<path d="M1 23L22 23" stroke="#676767" stroke-width="2" stroke-linecap="round"/>
</svg>
