<svg width="25" height="22" viewBox="0 0 25 22" fill="none" xmlns="http://www.w3.org/2000/svg">
<path d="M24.4692 7.35957C24.4692 14.8596 13.3489 20.9303 12.8753 21.181C12.7505 21.2481 12.611 21.2833 12.4692 21.2833C12.3275 21.2833 12.188 21.2481 12.0632 21.181C11.5896 20.9303 0.469238 14.8596 0.469238 7.35957C0.471223 5.59838 1.17173 3.9099 2.41708 2.66455C3.66243 1.41921 5.35091 0.718698 7.1121 0.716713C9.3246 0.716713 11.2617 1.66814 12.4692 3.27636C13.6767 1.66814 15.6139 0.716713 17.8264 0.716713C19.5876 0.718698 21.2761 1.41921 22.5214 2.66455C23.7667 3.9099 24.4673 5.59838 24.4692 7.35957Z" fill="#F47F54"/>
</svg>
