<svg width="91" height="36" viewBox="0 0 91 36" fill="none" xmlns="http://www.w3.org/2000/svg">
<path d="M0.536 5.712C0.536 4.24 0.984 3.104 1.88 2.304C2.808 1.472 3.992 1.056 5.432 1.056C6.936 1.056 8.136 1.472 9.032 2.304C9.928 3.104 10.376 4.24 10.376 5.712V26.16C10.376 26.768 10.536 27.2 10.856 27.456C11.176 27.68 11.704 27.584 12.44 27.168C14.04 26.24 15.464 25.504 16.712 24.96C17.96 24.384 19.336 24.096 20.84 24.096C22.92 24.096 24.488 24.64 25.544 25.728C26.6 26.816 27.128 28.24 27.128 30C27.128 31.888 26.552 33.344 25.4 34.368C24.28 35.392 22.472 35.904 19.976 35.904H10.088C7.976 35.904 6.216 35.664 4.808 35.184C3.4 34.672 2.328 33.76 1.592 32.448C0.888 31.136 0.536 29.232 0.536 26.736V5.712ZM28.6509 5.328C28.6509 3.952 29.0669 2.848 29.8989 2.016C30.7629 1.152 31.9469 0.719999 33.4509 0.719999C35.0509 0.719999 36.2349 1.136 37.0029 1.968C37.8029 2.8 38.2029 3.904 38.2029 5.28C38.2029 6.624 37.8029 7.712 37.0029 8.544C36.2349 9.344 35.0509 9.744 33.4509 9.744C31.8829 9.744 30.6829 9.344 29.8509 8.544C29.0509 7.712 28.6509 6.64 28.6509 5.328ZM33.4509 36C31.9469 36 30.8269 35.584 30.0909 34.752C29.3549 33.92 28.9869 32.88 28.9869 31.632V15.216C28.9869 13.84 29.3549 12.752 30.0909 11.952C30.8269 11.152 31.9469 10.752 33.4509 10.752C34.9549 10.752 36.0749 11.152 36.8109 11.952C37.5789 12.752 37.9629 13.808 37.9629 15.12V31.632C37.9629 32.88 37.5629 33.92 36.7629 34.752C35.9949 35.584 34.8909 36 33.4509 36ZM53.0885 36C51.0085 36 49.2325 35.392 47.7605 34.176C46.2885 32.96 45.0725 30.944 44.1125 28.128L40.3205 17.184C39.8085 15.744 39.8085 14.416 40.3205 13.2C40.8645 11.984 41.8565 11.216 43.2965 10.896C44.5765 10.608 45.6965 10.736 46.6565 11.28C47.6485 11.824 48.3525 12.736 48.7685 14.016L52.5125 25.008C52.9605 26.288 53.5045 27.232 54.1445 27.84C54.8165 28.448 55.6325 28.592 56.5925 28.272C57.4885 27.92 57.9685 27.344 58.0325 26.544C58.1285 25.712 57.9525 24.752 57.5045 23.664C57.1205 22.672 56.6085 21.824 55.9685 21.12C55.3285 20.416 54.7525 19.68 54.2405 18.912C53.7285 18.144 53.4725 17.184 53.4725 16.032C53.4725 14.368 54.0005 13.072 55.0565 12.144C56.1445 11.184 57.5685 10.736 59.3285 10.8C60.8325 10.832 62.0645 11.36 63.0245 12.384C63.9845 13.408 64.4645 14.704 64.4645 16.272C64.4645 17.136 64.3205 18.064 64.0325 19.056C63.7445 20.048 63.4245 21.088 63.0725 22.176L61.1525 28.224C60.6405 29.824 60.0645 31.216 59.4245 32.4C58.8165 33.552 58.0165 34.448 57.0245 35.088C56.0645 35.696 54.7525 36 53.0885 36ZM71.0458 36C69.6378 36 68.5018 35.584 67.6378 34.752C66.8058 33.888 66.3898 32.832 66.3898 31.584V15.696C66.3898 14.352 66.7898 13.216 67.5898 12.288C68.3898 11.36 69.5418 10.896 71.0458 10.896C72.5178 10.896 73.6378 11.36 74.4058 12.288C75.1738 13.216 75.5578 14.384 75.5578 15.792V18.192H76.4218C76.4218 16.368 76.7418 14.928 77.3818 13.872C78.0538 12.816 78.9018 12.064 79.9258 11.616C80.9498 11.136 81.9738 10.896 82.9978 10.896C85.4618 10.896 87.2698 11.792 88.4218 13.584C89.5738 15.344 90.1498 17.856 90.1498 21.12V31.584C90.1498 32.832 89.7338 33.888 88.9018 34.752C88.0698 35.584 86.9498 36 85.5418 36C84.1018 36 82.9498 35.584 82.0858 34.752C81.2538 33.888 80.8378 32.832 80.8378 31.584V23.088C80.8378 21.936 80.6138 21.04 80.1658 20.4C79.7498 19.76 79.1258 19.44 78.2938 19.44C77.3338 19.44 76.6298 19.792 76.1818 20.496C75.7658 21.2 75.5578 22.096 75.5578 23.184V31.584C75.5578 32.832 75.1578 33.888 74.3578 34.752C73.5578 35.584 72.4538 36 71.0458 36Z" fill="#F47F54"/>
</svg>
