<svg width="18" height="16" viewBox="0 0 18 16" fill="none" xmlns="http://www.w3.org/2000/svg">
<path d="M18 5.26962C18 10.8946 9.65973 15.4477 9.30455 15.6357C9.21094 15.686 9.1063 15.7124 9 15.7124C8.8937 15.7124 8.78906 15.686 8.69545 15.6357C8.34027 15.4477 0 10.8946 0 5.26962C0.00148881 3.94873 0.52687 2.68237 1.46088 1.74836C2.39489 0.814345 3.66125 0.288964 4.98214 0.287476C6.64152 0.287476 8.09437 1.00105 9 2.20721C9.90563 1.00105 11.3585 0.287476 13.0179 0.287476C14.3387 0.288964 15.6051 0.814345 16.5391 1.74836C17.4731 2.68237 17.9985 3.94873 18 5.26962Z" fill="#F47F54"/>
</svg>
